<?xml version="1.0" encoding="utf-8"?>
<!-- Generator: Adobe Illustrator 24.2.0, SVG Export Plug-In . SVG Version: 6.00 Build 0)  -->
<svg version="1.1" id="Layer_1" xmlns="http://www.w3.org/2000/svg" xmlns:xlink="http://www.w3.org/1999/xlink" x="0px" y="0px"
	 viewBox="0 0 20 20" style="enable-background:new 0 0 20 20;" xml:space="preserve">
<style type="text/css">
	.st1{fill:#FFFFFF;}
</style>
<g>
	<rect x="0" class="st0" width="20" height="20" fill="none"/>
	<path class="st1" d="M10,20c-4.6,0-8.3-2.9-9.6-7.3C-0.8,8.3,0.8,3.9,4.6,1.5c0.2-0.1,0.5-0.1,0.7,0.2c0.1,0.2,0.1,0.5-0.2,0.7
		c-3.4,2.1-4.9,6-3.8,10c1.1,4,4.5,6.6,8.6,6.6c4.1,0,7.5-2.6,8.6-6.6c1.1-4-0.3-7.9-3.8-10c-0.2-0.1-0.3-0.5-0.2-0.7
		c0.1-0.2,0.5-0.3,0.7-0.2c3.8,2.4,5.4,6.8,4.2,11.1C18.3,17.1,14.5,20,10,20z"/>
	<path class="st1" d="M10.6,0.6C10.6,0.3,10.3,0,10,0S9.4,0.3,9.4,0.6v5.1c0,0.3,0.3,0.6,0.6,0.6s0.6-0.3,0.6-0.6V0.6z"/>
</g>
</svg>
