<?xml version="1.0" encoding="utf-8"?>
<!-- Generator: Adobe Illustrator 23.0.6, SVG Export Plug-In . SVG Version: 6.00 Build 0)  -->
<svg version="1.1" id="Layer_1" xmlns="http://www.w3.org/2000/svg" xmlns:xlink="http://www.w3.org/1999/xlink" x="0px" y="0px"
	 viewBox="0 0 12 12" style="enable-background:new 0 0 12 12;" xml:space="preserve">
<style type="text/css">
	.st1{fill:#000000;}
</style>
<rect class="st0" width="12" height="12" fill="none"/>
<g>
	<path class="st1" d="M11,6.2C10.9,8.9,8.7,11,6,11c-2.8,0-5-2.2-5-5c0-2.8,2.2-5,5-5c1.1,0,2.1,0.4,3,1L7.8,3.2l4,1l-1-4L9.7,1.3
		C8.7,0.5,7.4,0,6,0C2.7,0,0,2.7,0,6c0,3.3,2.7,6,6,6c3.2,0,5.9-2.6,6-5.8H11z"/>
</g>
</svg>
