<?xml version="1.0" encoding="utf-8"?>
<!-- Generator: Adobe Illustrator 24.2.0, SVG Export Plug-In . SVG Version: 6.00 Build 0)  -->
<svg version="1.1" id="Layer_1" xmlns="http://www.w3.org/2000/svg" xmlns:xlink="http://www.w3.org/1999/xlink" x="0px" y="0px"
	 viewBox="0 0 16 16" style="enable-background:new 0 0 16 16;" xml:space="preserve">
<style type="text/css">
	.st1{fill:#FFFFFF;}
</style>
<g>
	<g>
		<rect x="0" y="0" class="st0" width="16" height="16" fill="none"/>
	</g>
	<g>
		<path class="st1" d="M8,1c3.9,0,7,3.1,7,7s-3.1,7-7,7s-7-3.1-7-7S4.1,1,8,1 M8,0C3.6,0,0,3.6,0,8s3.6,8,8,8s8-3.6,8-8S12.4,0,8,0
			L8,0z"/>
		<path class="st1" d="M8,9.6c1.4,0,2.6,0.9,3,2.1H5C5.4,10.5,6.6,9.6,8,9.6 M8,8.6c-2.3,0-4.1,1.9-4.1,4.1h8.3
			C12.1,10.5,10.3,8.6,8,8.6L8,8.6z"/>
		<path class="st1" d="M8,4.3c0.7,0,1.4,0.6,1.4,1.4S8.7,7,8,7S6.6,6.3,6.6,5.6S7.3,4.3,8,4.3 M8,3.3c-1.3,0-2.4,1.1-2.4,2.4
			S6.7,8,8,8s2.4-1.1,2.4-2.4S9.3,3.3,8,3.3L8,3.3z"/>
	</g>
</g>
</svg>
