<?xml version="1.0" encoding="utf-8"?>
<!-- Generator: Adobe Illustrator 23.0.6, SVG Export Plug-In . SVG Version: 6.00 Build 0)  -->
<svg version="1.1" id="Layer_1" xmlns="http://www.w3.org/2000/svg" xmlns:xlink="http://www.w3.org/1999/xlink" x="0px" y="0px"
	 viewBox="0 0 16 16" style="enable-background:new 0 0 16 16;" xml:space="preserve">
<style type="text/css">
	.st1{fill:#FFFFFF;}
</style>
<g>
	<rect class="st0" width="16" height="16" fill="none"/>
	<path class="st1" d="M11.7,10.8c1-1.1,1.5-2.6,1.5-4.2c0-3.6-3-6.6-6.6-6.6S0,3,0,6.6s3,6.6,6.6,6.6c1.6,0,3.1-0.6,4.2-1.5l4.3,4.3
		l0.8-0.8L11.7,10.8z M6.6,12c-3,0-5.4-2.4-5.4-5.4s2.4-5.4,5.4-5.4S12,3.6,12,6.6c0,1.3-0.4,2.4-1.2,3.4c-0.3,0.3-0.5,0.6-0.8,0.8
		C9,11.6,7.9,12,6.6,12z"/>
</g>
</svg>
