<?xml version="1.0" encoding="utf-8"?>
<!-- Generator: Adobe Illustrator 24.2.0, SVG Export Plug-In . SVG Version: 6.00 Build 0)  -->
<svg version="1.1" id="Layer_1" xmlns="http://www.w3.org/2000/svg" xmlns:xlink="http://www.w3.org/1999/xlink" x="0px" y="0px"
	 viewBox="0 0 20 20" style="enable-background:new 0 0 20 20;" xml:space="preserve">
<style type="text/css">
	.st1{fill:#FFFFFF;}
</style>
<g>
	<rect x="0" y="0" class="st0" width="20" height="20" fill="none"/>
	<path class="st1" d="M10,1c0.5,0,1,0,1.5,0.1c3.7,0.6,6.7,3.6,7.3,7.3c0.4,2.7-0.3,5.3-2,7.4c-1.7,2-4.2,3.2-6.9,3.2
		c-0.5,0-1,0-1.5-0.1c-3.7-0.6-6.7-3.6-7.3-7.3c-0.4-2.7,0.3-5.3,2-7.4C4.9,2.2,7.4,1,10,1 M10,0C3.9,0-0.9,5.4,0.1,11.7
		c0.7,4.1,4,7.5,8.2,8.2C8.9,20,9.4,20,10,20c6.1,0,10.9-5.4,9.9-11.7c-0.7-4.1-4-7.5-8.2-8.2C11.1,0,10.6,0,10,0L10,0z"/>
	<path class="st1" d="M11.1,3.4H8.9L4.5,15.2h2.1l1-3h4.6l1.1,3h2.1L11.1,3.4z M8.2,10.6l1.6-4.7C9.8,5.8,9.9,5.5,10,5.2h0
		c0.1,0.3,0.1,0.6,0.2,0.7l1.6,4.7H8.2z"/>
</g>
</svg>
