<?xml version="1.0" encoding="utf-8"?>
<!-- Generator: Adobe Illustrator 24.2.0, SVG Export Plug-In . SVG Version: 6.00 Build 0)  -->
<svg version="1.1" id="Layer_1" xmlns="http://www.w3.org/2000/svg" xmlns:xlink="http://www.w3.org/1999/xlink" x="0px" y="0px"
	 viewBox="0 0 20 20" style="enable-background:new 0 0 20 20;" xml:space="preserve">
<style type="text/css">
	.st1{fill:#FFFFFF;}
</style>
<g>
	<rect class="st0" width="20" height="20" fill="none"/>
	<path class="st1" d="M10,1c5,0,9,4,9,9s-4,9-9,9s-9-4-9-9S5,1,10,1 M10,0C4.5,0,0,4.5,0,10c0,5.5,4.5,10,10,10s10-4.5,10-10
		C20,4.5,15.5,0,10,0L10,0z"/>
	<path class="st1" d="M10.9,17c-0.3,0.3-0.7,0.4-1.1,0.4c-0.4,0-0.8-0.1-1.1-0.4c-0.3-0.3-0.5-0.6-0.5-0.9c0-0.4,0.2-0.7,0.5-0.9
		c0.3-0.3,0.7-0.4,1.1-0.4c0.4,0,0.8,0.1,1.1,0.4c0.3,0.2,0.5,0.6,0.5,0.9C11.4,16.4,11.3,16.7,10.9,17z M14.1,7.3
		c-0.2,0.4-0.4,0.8-0.7,1.1c-0.3,0.3-0.6,0.6-0.9,0.9c-0.3,0.3-0.6,0.5-0.9,0.8c-0.3,0.3-0.5,0.5-0.7,0.8c-0.2,0.3-0.3,0.6-0.3,0.9
		c0,0.3,0,0.5,0.1,0.8c0.1,0.2,0.2,0.4,0.2,0.6H8.6c-0.1-0.2-0.1-0.4-0.2-0.6c-0.1-0.3-0.1-0.5-0.1-0.8c0-0.4,0.1-0.8,0.3-1.1
		C8.8,10.3,9,10,9.3,9.7c0.3-0.3,0.5-0.6,0.9-0.8c0.3-0.3,0.6-0.5,0.9-0.8c0.3-0.3,0.5-0.5,0.7-0.8c0.2-0.3,0.3-0.6,0.3-0.9
		c0-0.3-0.1-0.6-0.2-0.8c-0.1-0.2-0.3-0.4-0.5-0.6c-0.2-0.1-0.5-0.3-0.8-0.3c-0.3-0.1-0.6-0.1-0.9-0.1C8.4,4.6,7.4,5,6.4,5.9V3.6
		c1.2-0.6,2.4-1,3.7-1c0.6,0,1.1,0.1,1.7,0.2c0.5,0.1,1,0.3,1.4,0.6c0.4,0.3,0.7,0.6,0.9,1c0.2,0.4,0.3,0.9,0.3,1.4
		C14.4,6.4,14.3,6.9,14.1,7.3z"/>
</g>
</svg>
