<?xml version="1.0" encoding="utf-8"?>
<!-- Generator: Adobe Illustrator 23.0.6, SVG Export Plug-In . SVG Version: 6.00 Build 0)  -->
<svg version="1.1" id="Layer_1" xmlns="http://www.w3.org/2000/svg" xmlns:xlink="http://www.w3.org/1999/xlink" x="0px" y="0px"
	 viewBox="0 0 16 16" style="enable-background:new 0 0 16 16;" xml:space="preserve">
<style type="text/css">
	.st1{fill:#FFFFFF;}
</style>
<g>
	<rect class="st0" width="16" height="16" fill="none"/>
	<g>
		<g>
			<path class="st1" d="M8,4.1c0.8,0,1.5-0.7,1.5-1.5c0-0.8-0.7-1.5-1.5-1.5S6.5,1.8,6.5,2.6C6.5,3.4,7.2,4.1,8,4.1"/>
			<path class="st1" d="M8,9.5c0.8,0,1.5-0.7,1.5-1.5S8.8,6.5,8,6.5S6.5,7.2,6.5,8S7.2,9.5,8,9.5"/>
			<path class="st1" d="M8,14.9c0.8,0,1.5-0.7,1.5-1.5S8.8,11.9,8,11.9s-1.5,0.7-1.5,1.5S7.2,14.9,8,14.9"/>
		</g>
	</g>
</g>
</svg>
