<?xml version="1.0" encoding="utf-8"?>
<!-- Generator: Adobe Illustrator 24.0.1, SVG Export Plug-In . SVG Version: 6.00 Build 0)  -->
<svg version="1.1" id="Layer_1" xmlns="http://www.w3.org/2000/svg" xmlns:xlink="http://www.w3.org/1999/xlink" x="0px" y="0px"
	 viewBox="0 0 16 16" style="enable-background:new 0 0 16 16;" xml:space="preserve">
<style type="text/css">
	.st1{fill:#000000;}
</style>
<g>
	<rect class="st0" width="16" height="16" fill="none"/>
	<path class="st1" d="M9.1,8l3.7-3.7c0.3-0.3,0.3-0.8,0-1.1c-0.3-0.3-0.8-0.3-1.1,0L8,6.9L4.3,3.2C4,2.9,3.5,2.9,3.2,3.2
		S2.9,4,3.2,4.3L6.9,8l-3.7,3.7c-0.3,0.3-0.3,0.8,0,1.1C3.4,12.9,3.6,13,3.8,13s0.4-0.1,0.6-0.2L8,9.1l3.7,3.7
		c0.2,0.2,0.4,0.2,0.6,0.2s0.4-0.1,0.6-0.2c0.3-0.3,0.3-0.8,0-1.1L9.1,8z"/>
</g>
</svg>
