<?xml version="1.0" encoding="utf-8"?>
<!-- Generator: Adobe Illustrator 24.2.0, SVG Export Plug-In . SVG Version: 6.00 Build 0)  -->
<svg version="1.1" id="Layer_1" xmlns="http://www.w3.org/2000/svg" xmlns:xlink="http://www.w3.org/1999/xlink" x="0px" y="0px"
	 viewBox="0 0 16 16" style="enable-background:new 0 0 16 16;" xml:space="preserve">
<style type="text/css">
	.st1{fill:#FFFFFF;}
</style>
<g>
	<rect x="0" y="0" class="st0" width="16" height="16" fill="none"/>
	<path class="st1" d="M14,2v1c0.6,0,1,0.4,1,1v10c0,0.6-0.4,1-1,1H2c-0.6,0-1-0.4-1-1V4c0-0.6,0.4-1,1-1V2C0.9,2,0,2.9,0,4v10
		c0,1.1,0.9,2,2,2h12c1.1,0,2-0.9,2-2V4C16,2.9,15.1,2,14,2z"/>
	<path class="st1" d="M10,1.5C9.8,0.8,9.1,0.2,8.3,0C8.2,0,8.1,0,8,0S7.8,0,7.7,0C6.9,0.2,6.2,0.8,6,1.5H2v3.1h12V1.5H10z M8,2.9
		c-0.6,0-1-0.4-1-1c0-0.6,0.4-1,1-1s1,0.4,1,1C9,2.4,8.6,2.9,8,2.9z"/>
</g>
</svg>
