<?xml version="1.0" encoding="utf-8"?>
<!-- Generator: Adobe Illustrator 24.2.0, SVG Export Plug-In . SVG Version: 6.00 Build 0)  -->
<svg version="1.1" id="Layer_1" xmlns="http://www.w3.org/2000/svg" xmlns:xlink="http://www.w3.org/1999/xlink" x="0px" y="0px"
	 viewBox="0 0 16 16" style="enable-background:new 0 0 16 16;" xml:space="preserve">
<style type="text/css">
	.st1{fill:#FFFFFF;}
</style>
<g>
	<rect y="0" class="st0" width="16" height="16" fill="none"/>
	<path class="st1" d="M8,1c3.9,0,7,2.7,7,6c0,3.3-3.1,6-7,6c-0.2,0-0.5,0-0.8,0l-0.3,0l-0.3,0.1L4,14.4v-1.9v-0.5l-0.4-0.3
		C1.9,10.5,1,8.8,1,7C1,3.7,4.1,1,8,1 M8,0C3.6,0,0,3.1,0,7c0,2.2,1.2,4.2,3,5.5V16l4.1-2c0.3,0,0.6,0,0.9,0c4.4,0,8-3.1,8-7
		C16,3.1,12.4,0,8,0L8,0z"/>
</g>
</svg>
