<?xml version="1.0" encoding="utf-8"?>
<!-- Generator: Adobe Illustrator 24.2.0, SVG Export Plug-In . SVG Version: 6.00 Build 0)  -->
<svg version="1.1" id="Layer_1" xmlns="http://www.w3.org/2000/svg" xmlns:xlink="http://www.w3.org/1999/xlink" x="0px" y="0px"
	 viewBox="0 0 16 16" style="enable-background:new 0 0 16 16;" xml:space="preserve">
<style type="text/css">
	.st1{fill:#FFFFFF;}
</style>
<g>
	<rect x="0" y="0" class="st0" width="16" height="16" fill="none"/>
	<g>
		<path class="st1" d="M12.5,0C12.2,0,12,0.2,12,0.5V2H4V0.5C4,0.2,3.8,0,3.5,0C3.2,0,3,0.2,3,0.5V2H1C0.4,2,0,2.4,0,3v12
			c0,0.6,0.5,1,1,1h14c0.6,0,1-0.4,1-1V3c0-0.5-0.4-1-1-1h-2V0.5C13,0.2,12.8,0,12.5,0L12.5,0z M12.5,4C12.8,4,13,3.8,13,3.5V3h2v12
			H1V3h2v0.5C3,3.8,3.2,4,3.5,4C3.8,4,4,3.8,4,3.5V3h8v0.5C12,3.8,12.2,4,12.5,4L12.5,4z"/>
	</g>
	<path class="st1" d="M4.7,10.8l1-1L7,11l3.1-4.6l1.2,0.8l-4.1,6.1L4.7,10.8z"/>
</g>
</svg>
