<?xml version="1.0" encoding="utf-8"?>
<!-- Generator: Adobe Illustrator 24.0.1, SVG Export Plug-In . SVG Version: 6.00 Build 0)  -->
<svg version="1.1" id="Layer_1" xmlns="http://www.w3.org/2000/svg" xmlns:xlink="http://www.w3.org/1999/xlink" x="0px" y="0px"
	 viewBox="0 0 12 12" style="enable-background:new 0 0 12 12;" xml:space="preserve">
<style type="text/css">
	.st1{fill:#000000;}
</style>
<g>
	<rect y="0" class="st0" width="12" height="12" fill="none"/>
	<path class="st1" d="M7.1,6l3.5-3.5c0.3-0.3,0.3-0.8,0-1.1s-0.8-0.3-1.1,0L6,4.9L2.5,1.5c-0.3-0.3-0.8-0.3-1.1,0s-0.3,0.8,0,1.1
		L4.9,6L1.5,9.5c-0.3,0.3-0.3,0.8,0,1.1c0.1,0.1,0.3,0.2,0.5,0.2s0.4-0.1,0.5-0.2L6,7.1l3.5,3.5c0.1,0.1,0.3,0.2,0.5,0.2
		s0.4-0.1,0.5-0.2c0.3-0.3,0.3-0.8,0-1.1L7.1,6z"/>
</g>
</svg>
