<?xml version="1.0" encoding="utf-8"?>
<!-- Generator: Adobe Illustrator 24.2.0, SVG Export Plug-In . SVG Version: 6.00 Build 0)  -->
<svg version="1.1" id="Layer_1" xmlns="http://www.w3.org/2000/svg" xmlns:xlink="http://www.w3.org/1999/xlink" x="0px" y="0px"
	 viewBox="0 0 20 20" style="enable-background:new 0 0 20 20;" xml:space="preserve">
<style type="text/css">
	.st1{fill:#FFFFFF;}
</style>
<g>
	<rect class="st0" width="20" height="20" fill="none"/>
	<path class="st1" d="M10.8,1l0.5,1.6l0.2,0.5L12,3.3c0.5,0.1,0.9,0.3,1.4,0.6l0.5,0.3l0.5-0.2l1.5-0.7l1.1,1.1l-0.7,1.5l-0.2,0.5
		l0.3,0.5c0.3,0.5,0.5,1,0.6,1.5l0.1,0.5l0.5,0.2L19,9.4v1.6l-1.7,0.6l-0.5,0.2l-0.2,0.5c-0.1,0.4-0.3,0.8-0.5,1.1l-0.2,0.5l0.2,0.5
		l0.8,1.6l-1.1,1.1l-1.5-0.8l-0.5-0.2l-0.5,0.3c-0.5,0.3-0.9,0.5-1.4,0.6l-0.5,0.1l-0.2,0.5L10.8,19H9.2l-0.5-1.6l-0.2-0.5L8,16.7
		c-0.4-0.1-0.9-0.3-1.3-0.5l-0.5-0.2l-0.5,0.2L4.1,17L3,15.9l0.8-1.6l0.2-0.5l-0.2-0.5c-0.2-0.4-0.4-0.8-0.5-1.2l-0.2-0.5l-0.5-0.2
		L1,10.9V9.4l1.6-0.5l0.5-0.2l0.1-0.5c0.1-0.5,0.4-1.1,0.6-1.5l0.3-0.5L3.9,5.7L3.1,4.1L4.2,3l1.6,0.8l0.5,0.2l0.5-0.2
		C7.1,3.6,7.6,3.4,8,3.3l0.5-0.1l0.2-0.5L9.2,1H10.8 M10,15c1.3,0,2.6-0.5,3.5-1.5c1.9-1.9,1.9-5.1,0-7.1C12.6,5.5,11.4,5,10,5
		C8.7,5,7.4,5.5,6.5,6.4c-1.9,1.9-1.9,5.1,0,7.1C7.4,14.5,8.7,15,10,15 M11.5,0h-3L7.7,2.3c-0.5,0.1-1,0.3-1.5,0.6L4,1.8L1.9,3.9
		L3,6.1C2.7,6.7,2.5,7.3,2.3,7.9L0,8.6v3l2.4,0.8c0.1,0.5,0.3,0.9,0.6,1.3l-1.1,2.3l2.1,2.1L6.2,17c0.5,0.3,1,0.5,1.5,0.6L8.5,20h3
		l0.8-2.3c0.6-0.2,1.1-0.4,1.6-0.7l2.2,1.1l2.1-2.1l-1.1-2.2c0.2-0.4,0.4-0.9,0.5-1.3l2.4-0.8v-3l-2.3-0.8c-0.2-0.6-0.4-1.2-0.7-1.7
		L18.1,4L16,1.9L13.8,3c-0.5-0.3-1-0.5-1.6-0.7L11.5,0L11.5,0z M10,14c-1,0-2-0.4-2.8-1.2c-1.6-1.6-1.6-4.1,0-5.7C8,6.4,9,6,10,6
		c1,0,2,0.4,2.8,1.2c1.6,1.6,1.6,4.1,0,5.7C12.1,13.6,11,14,10,14L10,14z"/>
</g>
</svg>
